<?xml version="1.0" standalone="no"?>
<!DOCTYPE svg PUBLIC "-//W3C//DTD SVG 20010904//EN"
 "http://www.w3.org/TR/2001/REC-SVG-20010904/DTD/svg10.dtd">
<svg version="1.0" xmlns="http://www.w3.org/2000/svg" fill="cyan"
 width="385.000000pt" height="124.000000pt" viewBox="0 0 385.000000 124.000000"
 preserveAspectRatio="xMidYMid meet">
<metadata>
Created by potrace 1.16, written by Peter Selinger 2001-2019
</metadata>
<g transform="translate(0.000000,124.000000) scale(0.100000,-0.100000)"
fill="#000000" stroke="none">
<path d="M451 1184 c0 -11 3 -14 6 -6 3 7 2 16 -1 19 -3 4 -6 -2 -5 -13z"/>
<path d="M1500 1173 c0 -6 -34 -8 -87 -6 -60 2 -82 0 -68 -6 11 -5 51 -10 89
-10 l68 -1 -3 -129 c-2 -71 -1 -124 3 -117 9 16 12 265 4 273 -3 4 -6 2 -6 -4z"/>
<path d="M453 1144 c-2 -6 -2 -49 0 -95 l3 -84 2 87 2 86 68 7 c96 9 100 15 8
12 -45 -1 -80 -7 -83 -13z"/>
<path d="M605 968 c-37 -20 -67 -53 -91 -100 -36 -70 -29 -73 9 -3 55 102 127
130 203 79 21 -15 32 -19 24 -10 -33 41 -103 57 -145 34z"/>
<path d="M626 902 c-3 -5 7 -7 23 -4 33 5 52 -15 62 -66 7 -36 7 -36 8 -6 1
40 -33 84 -64 84 -13 0 -26 -4 -29 -8z"/>
<path d="M772 833 c-3 -110 -61 -221 -128 -249 -42 -18 -45 -27 -4 -12 75 26
143 156 137 262 l-3 61 -2 -62z"/>
<path d="M580 848 c-11 -18 -20 -37 -20 -42 0 -12 1 -10 28 37 26 45 19 50 -8
5z"/>
<path d="M481 791 c-1 -8 -9 -23 -18 -33 -16 -18 -15 -18 20 -3 79 33 137 7
137 -59 0 -19 -4 -37 -9 -40 -16 -10 -41 5 -41 24 0 10 -7 23 -16 31 -20 17
-68 -8 -116 -60 l-33 -36 32 29 c18 16 34 28 35 25 2 -2 11 -19 21 -38 17 -32
17 -35 0 -55 -14 -15 -14 -18 -2 -8 13 10 23 9 48 -1 l32 -14 -40 -36 c-21
-19 -49 -40 -60 -47 -20 -10 -21 -9 -19 22 1 18 6 40 12 48 9 13 8 13 -5 3
-13 -11 -19 -6 -36 29 l-21 41 -26 -42 c-14 -22 -26 -46 -26 -53 0 -9 3 -8 10
2 15 24 12 6 -6 -29 -21 -41 -38 -35 -42 15 -6 62 15 109 75 176 l57 63 -55
-52 c-33 -33 -64 -53 -79 -54 -15 -1 -19 -3 -9 -6 14 -3 15 -9 6 -33 -6 -16
-18 -31 -27 -34 -12 -3 -11 -4 3 -5 13 -1 17 -10 17 -45 0 -27 6 -48 16 -57
14 -11 13 -15 -8 -32 -21 -17 -21 -17 -2 -8 35 17 74 70 74 100 0 15 6 36 14
46 13 18 14 18 25 -3 28 -53 6 -130 -51 -177 -18 -15 -23 -22 -12 -16 12 6 32
23 45 38 13 16 44 40 69 55 25 14 62 44 84 66 l39 41 -35 14 c-37 16 -68 51
-68 78 0 9 11 21 25 27 20 9 25 9 25 -1 0 -8 11 -24 25 -37 21 -19 29 -22 48
-13 22 10 23 16 17 55 -3 24 -10 49 -14 56 -14 23 -68 44 -97 38 -17 -3 -29
-1 -33 7 -3 8 -5 7 -5 -2z m76 -113 c-3 -8 -6 -5 -6 6 -1 11 2 17 5 13 3 -3 4
-12 1 -19z"/>
<path d="M700 778 c0 -8 -11 -36 -24 -61 -13 -26 -18 -42 -10 -36 17 14 49 97
40 106 -3 3 -6 0 -6 -9z"/>
<path d="M830 634 l0 -146 101 4 c96 3 102 4 125 31 30 35 30 59 0 94 l-24 27
21 28 c17 23 19 31 9 53 -17 37 -69 55 -157 55 l-75 0 0 -146z m158 62 c5 -24
-14 -36 -55 -36 -30 0 -33 3 -33 31 0 29 1 30 42 27 33 -2 44 -8 46 -22z m0
-95 c8 -5 12 -17 10 -27 -2 -15 -14 -20 -51 -22 -46 -3 -47 -3 -47 27 0 29 2
31 38 31 20 0 43 -4 50 -9z"/>
<path d="M1120 635 l0 -145 95 0 95 0 0 30 0 30 -60 0 -60 0 0 115 0 115 -35
0 -35 0 0 -145z"/>
<path d="M1402 760 c-34 -15 -47 -29 -64 -66 -46 -104 20 -204 135 -204 90 0
148 50 155 132 3 44 0 59 -20 88 -45 67 -125 87 -206 50z m129 -69 c32 -33 36
-58 14 -100 -24 -48 -81 -56 -120 -16 -40 40 -30 116 18 135 38 15 58 11 88
-19z"/>
<path d="M1730 762 c-73 -36 -101 -128 -62 -201 36 -67 141 -93 210 -51 37 23
39 31 13 54 -18 17 -22 17 -43 2 -34 -24 -66 -19 -99 13 -38 39 -38 74 1 113
26 25 36 29 62 24 18 -3 39 -13 48 -21 16 -14 19 -13 34 10 20 31 17 38 -28
59 -44 21 -92 20 -136 -2z"/>
<path d="M1950 635 l0 -145 35 0 c34 0 35 1 35 38 0 26 7 45 19 56 19 17 21
16 57 -38 35 -54 39 -56 80 -56 l44 0 -56 85 -56 84 51 58 52 58 -38 3 c-36 3
-42 0 -95 -60 l-58 -63 0 63 0 62 -35 0 -35 0 0 -145z"/>
<path d="M2220 750 c0 -29 2 -30 45 -30 l45 0 0 -115 0 -115 35 0 35 0 0 115
0 115 45 0 c43 0 45 1 45 30 l0 30 -125 0 -125 0 0 -30z"/>
<path d="M2560 762 c-19 -9 -45 -33 -58 -52 -20 -29 -23 -44 -20 -88 4 -45 10
-59 41 -90 32 -31 43 -36 95 -40 41 -3 68 1 90 12 104 54 104 204 0 255 -54
26 -101 27 -148 3z m125 -67 c49 -48 18 -145 -45 -145 -42 0 -59 9 -75 41 -22
42 -18 67 14 100 36 36 73 37 106 4z"/>
<path d="M2882 760 c-34 -15 -47 -29 -64 -66 -46 -104 20 -204 135 -204 90 0
148 50 155 132 3 44 0 59 -20 88 -45 67 -125 87 -206 50z m129 -69 c32 -33 36
-58 14 -100 -24 -48 -81 -56 -120 -16 -40 40 -30 116 18 135 38 15 58 11 88
-19z"/>
<path d="M3150 635 l0 -145 95 0 95 0 0 30 0 30 -60 0 -60 0 0 115 0 115 -35
0 -35 0 0 -145z"/>
<path d="M3430 773 c-33 -12 -60 -47 -60 -78 0 -39 30 -69 88 -86 46 -13 68
-32 57 -49 -9 -15 -66 -12 -95 5 -35 20 -45 18 -58 -10 -11 -25 -10 -27 30
-45 82 -37 180 -18 195 38 16 62 2 83 -82 115 -64 25 -79 50 -34 55 15 2 43
-3 62 -11 34 -15 35 -14 46 9 15 34 15 33 -24 50 -34 14 -96 18 -125 7z"/>
<path d="M223 621 c-94 -32 -173 -101 -173 -151 0 -8 9 4 20 27 21 47 86 96
155 115 22 6 44 15 50 20 12 11 8 10 -52 -11z"/>
<path d="M200 541 c-19 -11 -46 -32 -60 -48 l-25 -28 30 27 c17 15 50 36 75
47 25 11 38 20 30 20 -8 0 -31 -8 -50 -18z"/>
<path d="M110 444 c0 -10 5 -26 10 -34 8 -11 9 -7 4 15 -8 37 -14 45 -14 19z"/>
<path d="M3408 453 c7 -3 16 -2 19 1 4 3 -2 6 -13 5 -11 0 -14 -3 -6 -6z"/>
<path d="M3368 443 c7 -3 16 -2 19 1 4 3 -2 6 -13 5 -11 0 -14 -3 -6 -6z"/>
<path d="M3328 433 c7 -3 16 -2 19 1 4 3 -2 6 -13 5 -11 0 -14 -3 -6 -6z"/>
<path d="M51 402 c6 -18 15 -35 20 -38 5 -3 4 7 -3 23 -17 41 -30 53 -17 15z"/>
<path d="M3278 423 c6 -2 18 -2 25 0 6 3 1 5 -13 5 -14 0 -19 -2 -12 -5z"/>
<path d="M3238 413 c7 -3 16 -2 19 1 4 3 -2 6 -13 5 -11 0 -14 -3 -6 -6z"/>
<path d="M250 400 c-8 -5 -10 -10 -5 -10 6 0 17 5 25 10 8 5 11 10 5 10 -5 0
-17 -5 -25 -10z"/>
<path d="M3198 403 c7 -3 16 -2 19 1 4 3 -2 6 -13 5 -11 0 -14 -3 -6 -6z"/>
<path d="M147 389 c7 -7 15 -10 18 -7 3 3 -2 9 -12 12 -14 6 -15 5 -6 -5z"/>
<path d="M3158 393 c7 -3 16 -2 19 1 4 3 -2 6 -13 5 -11 0 -14 -3 -6 -6z"/>
<path d="M193 383 c9 -2 23 -2 30 0 6 3 -1 5 -18 5 -16 0 -22 -2 -12 -5z"/>
<path d="M3095 380 c-13 -5 -14 -9 -5 -9 8 0 24 4 35 9 13 5 14 9 5 9 -8 0
-24 -4 -35 -9z"/>
<path d="M3383 383 c9 -2 23 -2 30 0 6 3 -1 5 -18 5 -16 0 -22 -2 -12 -5z"/>
<path d="M3328 373 c6 -2 18 -2 25 0 6 3 1 5 -13 5 -14 0 -19 -2 -12 -5z"/>
<path d="M1511 354 c0 -11 3 -14 6 -6 3 7 2 16 -1 19 -3 4 -6 -2 -5 -13z"/>
<path d="M3258 363 c6 -2 18 -2 25 0 6 3 1 5 -13 5 -14 0 -19 -2 -12 -5z"/>
<path d="M310 350 c-9 -6 -10 -10 -3 -10 6 0 15 5 18 10 8 12 4 12 -15 0z"/>
<path d="M3208 353 c6 -2 18 -2 25 0 6 3 1 5 -13 5 -14 0 -19 -2 -12 -5z"/>
<path d="M3158 343 c7 -3 16 -2 19 1 4 3 -2 6 -13 5 -11 0 -14 -3 -6 -6z"/>
<path d="M268 335 c-3 -3 -34 -10 -69 -15 l-64 -9 62 3 c33 2 69 9 80 15 10 6
13 11 7 11 -6 0 -13 -2 -16 -5z"/>
<path d="M461 314 c0 -11 3 -14 6 -6 3 7 2 16 -1 19 -3 4 -6 -2 -5 -13z"/>
<path d="M1502 213 c-2 -87 -4 -102 -19 -106 -10 -3 -3 -5 16 -6 26 -1 31 2
23 12 -6 7 -13 56 -15 108 l-3 94 -2 -102z"/>
<path d="M456 253 c-3 -21 -5 -58 -5 -83 1 -32 4 -22 10 34 9 84 6 113 -5 49z"/>
<path d="M436 107 c4 -10 21 -11 81 -5 42 5 79 10 81 13 3 3 -34 5 -81 5 -67
0 -85 -3 -81 -13z"/>
<path d="M1438 103 c7 -3 16 -2 19 1 4 3 -2 6 -13 5 -11 0 -14 -3 -6 -6z"/>
</g>
</svg>
